<svg xmlns="http://www.w3.org/2000/svg" width="1400" height="820" viewBox="0 0 1400 820" role="img" aria-labelledby="t d">
  <title id="t">TravelPlanner Dashboard Overview</title>
  <desc id="d">Placeholder screenshot showing dashboard cards, donut chart, and itinerary timeline.</desc>
  <defs>
    <linearGradient id="bg" x1="0" y1="0" x2="1" y2="1">
      <stop offset="0%" stop-color="#eef4ff"/>
      <stop offset="100%" stop-color="#f7fbff"/>
    </linearGradient>
    <linearGradient id="hero" x1="0" y1="0" x2="1" y2="0">
      <stop offset="0%" stop-color="#0a3565"/>
      <stop offset="60%" stop-color="#0f6abf"/>
      <stop offset="100%" stop-color="#14b8a6"/>
    </linearGradient>
  </defs>
  <rect width="1400" height="820" fill="url(#bg)"/>
  <rect x="40" y="36" width="1320" height="110" rx="24" fill="url(#hero)"/>
  <text x="72" y="82" fill="#fff" font-size="22" font-family="Arial" opacity=".85">TravelPlanner</text>
  <text x="72" y="122" fill="#fff" font-size="42" font-weight="700" font-family="Georgia, serif">Trip Dashboard</text>
  <rect x="40" y="166" width="1320" height="52" rx="18" fill="#fff" stroke="#e8edf5"/>
  <g fill="#1b2436" font-family="Arial" font-size="20" font-weight="700">
    <text x="62" y="198">Dashboard</text>
    <text x="172" y="198" opacity=".45">Itinerary</text>
    <text x="264" y="198" opacity=".45">Costs</text>
    <text x="330" y="198" opacity=".45">Settings</text>
  </g>
  <rect x="40" y="236" width="1320" height="544" rx="24" fill="#fff" stroke="#e8edf5"/>
  <rect x="64" y="264" width="1272" height="72" rx="16" fill="#f9fbff" stroke="#e8edf5"/>
  <text x="88" y="309" fill="#162033" font-size="34" font-weight="700" font-family="Georgia, serif">Summer Family Getaway</text>
  <g>
    <rect x="64" y="356" width="245" height="98" rx="16" fill="#fff" stroke="#e8edf5"/>
    <rect x="323" y="356" width="245" height="98" rx="16" fill="#fff" stroke="#e8edf5"/>
    <rect x="582" y="356" width="245" height="98" rx="16" fill="#fff" stroke="#e8edf5"/>
    <rect x="841" y="356" width="245" height="98" rx="16" fill="#fff" stroke="#e8edf5"/>
    <rect x="1100" y="356" width="236" height="98" rx="16" fill="#fff" stroke="#e8edf5"/>
  </g>
  <g fill="#6b7280" font-family="Arial" font-size="18">
    <text x="82" y="390">Total Budget (CDN)</text>
    <text x="341" y="390">Planned Cost</text>
    <text x="600" y="390">Paid Cost</text>
    <text x="859" y="390">Outstanding</text>
    <text x="1118" y="390">Remaining</text>
  </g>
  <g fill="#162033" font-family="Arial" font-size="28" font-weight="700">
    <text x="82" y="430">CA$5,712</text>
    <text x="341" y="430">CA$5,644</text>
    <text x="600" y="430">CA$3,454</text>
    <text x="859" y="430">CA$2,190</text>
    <text x="1118" y="430">CA$68</text>
  </g>
  <rect x="64" y="474" width="700" height="172" rx="16" fill="#fff" stroke="#e8edf5"/>
  <text x="86" y="506" fill="#162033" font-size="24" font-weight="700" font-family="Arial">Category Breakdown</text>
  <circle cx="175" cy="568" r="68" fill="none" stroke="#0f6abf" stroke-width="30" stroke-dasharray="130 300" transform="rotate(-90 175 568)"/>
  <circle cx="175" cy="568" r="68" fill="none" stroke="#0ea5a8" stroke-width="30" stroke-dasharray="90 340" stroke-dashoffset="-136" transform="rotate(-90 175 568)"/>
  <circle cx="175" cy="568" r="68" fill="none" stroke="#ff8c42" stroke-width="30" stroke-dasharray="70 360" stroke-dashoffset="-230" transform="rotate(-90 175 568)"/>
  <circle cx="175" cy="568" r="42" fill="#fff"/>
  <text x="175" y="562" text-anchor="middle" fill="#6b7280" font-size="18" font-family="Arial">Planned</text>
  <text x="175" y="588" text-anchor="middle" fill="#162033" font-size="26" font-weight="700" font-family="Arial">$5.6k</text>
  <g fill="#162033" font-family="Arial" font-size="18">
    <circle cx="290" cy="532" r="6" fill="#0f6abf"/><text x="306" y="538">Transportation</text>
    <circle cx="290" cy="566" r="6" fill="#0ea5a8"/><text x="306" y="572">Lodging</text>
    <circle cx="290" cy="600" r="6" fill="#ff8c42"/><text x="306" y="606">Activities</text>
  </g>
  <rect x="780" y="474" width="556" height="172" rx="16" fill="#fff" stroke="#e8edf5"/>
  <text x="802" y="506" fill="#162033" font-size="24" font-weight="700" font-family="Arial">Budget Health</text>
  <text x="802" y="546" fill="#162033" font-size="20" font-family="Arial">Planned vs Budget</text>
  <rect x="802" y="560" width="512" height="16" rx="8" fill="#e9eef7"/>
  <rect x="802" y="560" width="484" height="16" rx="8" fill="#4a90e2"/>
  <text x="802" y="612" fill="#162033" font-size="20" font-family="Arial">Paid vs Budget</text>
  <rect x="802" y="626" width="512" height="16" rx="8" fill="#e9eef7"/>
  <rect x="802" y="626" width="308" height="16" rx="8" fill="#34d399"/>
  <rect x="64" y="666" width="1272" height="94" rx="16" fill="#fff" stroke="#e8edf5"/>
  <text x="86" y="698" fill="#162033" font-size="24" font-weight="700" font-family="Arial">Itinerary Timeline</text>
  <g>
    <rect x="86" y="714" width="130" height="28" rx="14" fill="#0f6abf"/><text x="101" y="733" fill="#fff" font-size="16" font-family="Arial">Flight to Orlando</text>
    <rect x="230" y="714" width="118" height="28" rx="14" fill="#0f6abf"/><text x="246" y="733" fill="#fff" font-size="16" font-family="Arial">Hotel Check-in</text>
    <rect x="362" y="714" width="144" height="28" rx="14" fill="#ff8c42"/><text x="378" y="733" fill="#fff" font-size="16" font-family="Arial">Park Parking Pass</text>
  </g>
</svg>
