<svg xmlns="http://www.w3.org/2000/svg" width="1400" height="820" viewBox="0 0 1400 820" role="img" aria-labelledby="t d">
  <title id="t">TravelPlanner Itinerary Builder</title>
  <desc id="d">Placeholder screenshot showing itinerary form and itinerary table.</desc>
  <rect width="1400" height="820" fill="#f4f8ff"/>
  <rect x="36" y="34" width="1328" height="752" rx="24" fill="#fff" stroke="#e8edf5"/>
  <text x="76" y="92" fill="#162033" font-size="36" font-weight="700" font-family="Arial">Itinerary Builder</text>
  <text x="76" y="124" fill="#6b7280" font-size="18" font-family="Arial">Build your trip itinerary with scheduled activities and costs</text>
  <rect x="76" y="154" width="1248" height="212" rx="18" fill="#fbfdff" stroke="#e8edf5"/>
  <text x="102" y="190" fill="#162033" font-size="22" font-weight="700" font-family="Arial">Add Itinerary Item</text>
  <g fill="#162033" font-family="Arial" font-size="16" font-weight="700">
    <text x="102" y="232">Date</text><text x="256" y="232">Time</text><text x="410" y="232">Activity</text><text x="864" y="232">Location</text>
    <text x="102" y="316">Category</text><text x="320" y="316">Currency</text><text x="514" y="316">Planned</text><text x="688" y="316">Paid</text><text x="862" y="316">Status</text>
  </g>
  <g fill="#fff" stroke="#e8edf5">
    <rect x="102" y="244" width="132" height="42" rx="12"/><rect x="256" y="244" width="132" height="42" rx="12"/>
    <rect x="410" y="244" width="430" height="42" rx="12"/><rect x="862" y="244" width="436" height="42" rx="12"/>
    <rect x="102" y="328" width="196" height="42" rx="12"/><rect x="320" y="328" width="172" height="42" rx="12"/>
    <rect x="514" y="328" width="152" height="42" rx="12"/><rect x="688" y="328" width="152" height="42" rx="12"/>
    <rect x="862" y="328" width="238" height="42" rx="12"/><rect x="1116" y="328" width="182" height="42" rx="12" fill="#0f6abf" stroke="none"/>
  </g>
  <text x="1164" y="355" fill="#fff" font-size="18" font-weight="700" font-family="Arial">Add Activity</text>
  <rect x="76" y="390" width="1248" height="356" rx="18" fill="#fff" stroke="#e8edf5"/>
  <g>
    <rect x="76" y="390" width="1248" height="52" rx="18" fill="#f8fbff" stroke="#e8edf5"/>
    <g fill="#6b7280" font-family="Arial" font-size="16" font-weight="700">
      <text x="98" y="423">Date</text><text x="176" y="423">Time</text><text x="246" y="423">Activity</text><text x="470" y="423">Location</text><text x="676" y="423">Category</text><text x="786" y="423">Curr</text><text x="846" y="423">Planned</text><text x="944" y="423">Paid</text><text x="1032" y="423">Status</text><text x="1160" y="423">Actions</text>
    </g>
  </g>
  <g font-family="Arial" font-size="16" fill="#162033">
    <rect x="76" y="442" width="1248" height="60" fill="#fff" stroke="#eef3f9"/>
    <text x="98" y="478">Apr 27, 2026</text><text x="176" y="478">07:30</text><text x="246" y="478">Flight to Orlando</text><text x="470" y="478">YYZ Airport</text><text x="676" y="478">Transportation</text><text x="786" y="478">CAD</text><text x="846" y="478">CA$964.24</text><text x="944" y="478">CA$0.00</text>
    <rect x="1032" y="456" width="70" height="28" rx="14" fill="#eff6ff"/><text x="1050" y="475" fill="#1d4ed8">Planned</text>
    <rect x="1154" y="452" width="54" height="32" rx="10" fill="#fff" stroke="#e8edf5"/><text x="1172" y="473">Edit</text>
    <rect x="1214" y="452" width="82" height="32" rx="10" fill="#fff6f8" stroke="#f3c4cd"/><text x="1237" y="473" fill="#b42318">Delete</text>

    <rect x="76" y="502" width="1248" height="60" fill="#fff" stroke="#eef3f9"/>
    <text x="98" y="538">Apr 28, 2026</text><text x="176" y="538">09:00</text><text x="246" y="538">Epic Universe</text><text x="470" y="538">Orlando</text><text x="676" y="538">Park Passes</text><text x="786" y="538">USD</text><text x="846" y="538">US$520.00</text><text x="944" y="538">US$520.00</text>
    <rect x="1032" y="516" width="54" height="28" rx="14" fill="#ecfdf5"/><text x="1049" y="535" fill="#047857">Paid</text>

    <rect x="76" y="562" width="1248" height="60" fill="#fff" stroke="#eef3f9"/>
    <text x="98" y="598">Apr 29, 2026</text><text x="176" y="598">18:30</text><text x="246" y="598">Dinner Reservation</text><text x="470" y="598">Disney Springs</text><text x="676" y="598">Food</text><text x="786" y="598">USD</text><text x="846" y="598">US$120.00</text><text x="944" y="598">US$0.00</text>
    <rect x="1032" y="576" width="70" height="28" rx="14" fill="#fff7ed"/><text x="1049" y="595" fill="#c2410c">Booked</text>
  </g>
</svg>
